<svg width="25" height="17" viewBox="0 0 25 17" fill="none" xmlns="http://www.w3.org/2000/svg">
<path d="M13.0766 9.14215L9.32414 15.5689L5.57171 9.14215H13.0766ZM14.0819 8.56775H4.56238L9.32414 16.7056L14.0819 8.56775Z" fill="#263238"/>
<path d="M19.6007 1.14878L23.3531 7.57551H15.8482L19.6007 1.14878ZM19.6007 0L14.8389 8.13785H24.3624L19.6007 0Z" fill="#263238"/>
<path d="M0 0L3.99259 7.19795L8.35551 0.180742L0 0Z" fill="#007AFF"/>
<path d="M9.32425 0.630554L13.5122 7.78834H5.12817L9.32425 0.630554Z" fill="#007AFF"/>
<path d="M14.5906 9.35101L18.7827 16.7057H10.1992L14.4604 9.35101H14.5906Z" fill="#007AFF"/>
<path d="M15.4982 8.90515L19.6007 16.1473L23.7601 8.90515H15.4982Z" fill="#007AFF"/>
</svg>
